<?xml version='1.0' encoding='UTF-8' standalone='no'?>
<!-- Created with Fritzing (http://www.fritzing.org/) -->
<svg xmlns="http://www.w3.org/2000/svg" width="18.7787in" x="0in" version="1.2" y="0in"  height="8.55762in" viewBox="0 0 1352.07 616.148" baseProfile="tiny" xmlns:svg="http://www.w3.org/2000/svg">
 <g  id="watermark">
  <g >
   <path fill="#8C8C8C"  d="M1244.25,613.82L1242.32,608.256L1242.29,608.256c0.017,0.214,0.032,0.427,0.044,0.64c0.012,0.183,0.021,0.375,0.028,0.574c0.007,0.203,0.011,0.385,0.011,0.551l0,3.8L1241.62,613.821L1241.62,607.465l1.199,0l1.791,5.181l0.025,0l1.8,-5.181L1247.64,607.465l0,6.354L1246.83,613.819l0,-3.854c0,-0.15,0.003,-0.324,0.009,-0.518s0.013,-0.38,0.021,-0.557c0.012,-0.207,0.021,-0.416,0.029,-0.625L1246.86,608.265L1244.91,613.82L1244.25,613.82z"/>
   <path fill="#8C8C8C"  d="M1251.95,613.82l-0.16,-0.661l-0.035,0c-0.095,0.131,-0.19,0.243,-0.286,0.338c-0.095,0.095,-0.2,0.172,-0.313,0.231c-0.113,0.062,-0.239,0.106,-0.378,0.136c-0.141,0.028,-0.3,0.042,-0.482,0.042c-0.2,0,-0.384,-0.026,-0.552,-0.084c-0.168,-0.057,-0.314,-0.144,-0.438,-0.261c-0.122,-0.116,-0.219,-0.265,-0.288,-0.443S1248.91,612.73,1248.91,612.485c0,-0.475,0.167,-0.841,0.501,-1.095c0.335,-0.256,0.845,-0.394,1.528,-0.418l0.799,-0.029l0,-0.301c0,-0.193,-0.021,-0.356,-0.063,-0.486s-0.103,-0.234,-0.183,-0.314s-0.178,-0.138,-0.295,-0.172c-0.117,-0.035,-0.251,-0.052,-0.402,-0.052c-0.241,0,-0.464,0.034,-0.671,0.104c-0.207,0.068,-0.407,0.152,-0.597,0.25L1249.25,609.379c0.214,-0.117,0.453,-0.217,0.717,-0.298c0.264,-0.079,0.54,-0.12,0.83,-0.12c0.296,0,0.551,0.029,0.768,0.09c0.216,0.059,0.395,0.151,0.534,0.28c0.141,0.13,0.247,0.294,0.316,0.494c0.07,0.199,0.104,0.44,0.104,0.726l0,3.269L1251.95,613.82L1251.95,613.82zM1250.5,613.269c0.178,0,0.341,-0.028,0.491,-0.084c0.149,-0.055,0.282,-0.138,0.391,-0.249c0.11,-0.111,0.196,-0.252,0.258,-0.422c0.063,-0.17,0.094,-0.369,0.094,-0.599l0,-0.43l-0.621,0.03c-0.262,0.012,-0.48,0.041,-0.656,0.086c-0.175,0.047,-0.317,0.113,-0.423,0.193c-0.105,0.084,-0.183,0.185,-0.229,0.301c-0.046,0.117,-0.068,0.25,-0.068,0.398c0,0.268,0.069,0.462,0.211,0.586C1250.09,613.206,1250.27,613.269,1250.5,613.269z"/>
   <path fill="#8C8C8C"  d="M1256.93,613.181l-0.034,0c-0.063,0.099,-0.139,0.191,-0.224,0.281c-0.085,0.088,-0.184,0.165,-0.296,0.231c-0.111,0.066,-0.237,0.118,-0.376,0.156c-0.139,0.037,-0.295,0.056,-0.47,0.056c-0.271,0,-0.517,-0.051,-0.738,-0.154c-0.223,-0.105,-0.416,-0.262,-0.575,-0.469s-0.282,-0.464,-0.369,-0.771c-0.087,-0.309,-0.13,-0.664,-0.13,-1.069c0,-0.408,0.043,-0.767,0.13,-1.076c0.086,-0.31,0.209,-0.567,0.369,-0.774c0.159,-0.209,0.352,-0.367,0.575,-0.473c0.222,-0.105,0.469,-0.158,0.738,-0.158c0.171,0,0.327,0.02,0.466,0.057s0.264,0.088,0.376,0.152c0.112,0.063,0.211,0.137,0.297,0.221s0.163,0.172,0.227,0.266l0.052,0c-0.009,-0.1,-0.018,-0.191,-0.026,-0.283c-0.006,-0.074,-0.012,-0.152,-0.018,-0.232c-0.005,-0.078,-0.009,-0.143,-0.009,-0.188L1256.9,607.057l0.792,0l0,6.763l-0.641,0L1256.93,613.181zM1255.68,613.252c0.221,0,0.407,-0.033,0.56,-0.102c0.151,-0.065,0.274,-0.168,0.37,-0.304c0.094,-0.136,0.163,-0.308,0.209,-0.512c0.044,-0.204,0.069,-0.442,0.076,-0.716l0,-0.177c0,-0.292,-0.02,-0.552,-0.059,-0.78c-0.04,-0.229,-0.105,-0.418,-0.2,-0.574c-0.094,-0.154,-0.219,-0.271,-0.376,-0.351c-0.156,-0.08,-0.352,-0.119,-0.586,-0.119c-0.391,0,-0.679,0.157,-0.861,0.474c-0.185,0.315,-0.277,0.771,-0.277,1.359c0,0.605,0.092,1.058,0.277,1.354C1255,613.102,1255.29,613.252,1255.68,613.252z"/>
   <path fill="#8C8C8C"  d="M1261.09,613.906c-0.318,0,-0.609,-0.053,-0.874,-0.16c-0.263,-0.106,-0.49,-0.264,-0.68,-0.469c-0.19,-0.207,-0.338,-0.461,-0.442,-0.766c-0.104,-0.306,-0.156,-0.651,-0.156,-1.045s0.049,-0.744,0.144,-1.055c0.096,-0.311,0.229,-0.574,0.405,-0.789c0.174,-0.216,0.382,-0.381,0.623,-0.492c0.241,-0.113,0.51,-0.17,0.802,-0.17c0.287,0,0.545,0.051,0.772,0.153c0.229,0.104,0.423,0.248,0.583,0.435c0.159,0.188,0.282,0.412,0.367,0.674c0.087,0.263,0.13,0.554,0.13,0.873l0,0.49l-3.008,0c0.015,0.559,0.133,0.971,0.354,1.234c0.222,0.263,0.551,0.396,0.987,0.396c0.149,0,0.285,-0.008,0.411,-0.021s0.248,-0.035,0.365,-0.063c0.118,-0.026,0.23,-0.063,0.342,-0.104s0.222,-0.089,0.334,-0.142l0,0.704c-0.116,0.055,-0.229,0.104,-0.341,0.144c-0.112,0.041,-0.226,0.074,-0.343,0.102c-0.117,0.024,-0.239,0.045,-0.365,0.056S1261.23,613.906,1261.09,613.906zM1260.89,609.618c-0.331,0,-0.592,0.112,-0.783,0.339c-0.193,0.227,-0.307,0.555,-0.338,0.985l2.14,0c0,-0.196,-0.021,-0.378,-0.06,-0.541c-0.039,-0.164,-0.1,-0.304,-0.183,-0.419s-0.187,-0.205,-0.315,-0.27C1261.22,609.648,1261.07,609.618,1260.89,609.618z"/>
   <path fill="#8C8C8C"  d="M1269.9,613.82l-0.729,-2.678c-0.012,-0.053,-0.026,-0.111,-0.044,-0.176c-0.017,-0.065,-0.034,-0.136,-0.051,-0.207c-0.019,-0.072,-0.036,-0.146,-0.055,-0.223c-0.02,-0.074,-0.037,-0.148,-0.055,-0.222c-0.041,-0.169,-0.083,-0.341,-0.126,-0.521l-0.024,0c-0.041,0.182,-0.08,0.356,-0.117,0.524c-0.032,0.146,-0.066,0.294,-0.104,0.448c-0.037,0.152,-0.069,0.283,-0.103,0.391l-0.75,2.66l-0.917,0l-1.221,-4.771l0.83,0l0.57,2.539c0.029,0.129,0.059,0.27,0.086,0.423c0.028,0.151,0.057,0.303,0.082,0.452c0.026,0.148,0.05,0.288,0.07,0.421c0.02,0.132,0.037,0.238,0.049,0.322l0.025,0c0.015,-0.074,0.034,-0.177,0.059,-0.302c0.025,-0.126,0.052,-0.26,0.083,-0.399c0.031,-0.141,0.063,-0.28,0.093,-0.417c0.032,-0.139,0.063,-0.254,0.091,-0.351l0.778,-2.69l0.853,0l0.748,2.69c0.025,0.098,0.056,0.215,0.089,0.348c0.033,0.135,0.065,0.27,0.098,0.407c0.032,0.139,0.061,0.271,0.087,0.397c0.025,0.127,0.045,0.231,0.056,0.315l0.026,0c0.01,-0.074,0.022,-0.177,0.042,-0.302c0.02,-0.126,0.042,-0.265,0.067,-0.415c0.025,-0.149,0.054,-0.306,0.084,-0.464c0.03,-0.157,0.062,-0.306,0.094,-0.44L1271.26,609.047l0.809,0l-1.234,4.771L1269.9,613.818L1269.9,613.82z"/>
   <path fill="#8C8C8C"  d="M1272.85,607.757c0,-0.175,0.045,-0.3,0.133,-0.379c0.088,-0.078,0.197,-0.117,0.328,-0.117c0.063,0,0.123,0.011,0.181,0.028c0.056,0.019,0.104,0.049,0.147,0.089c0.042,0.041,0.075,0.092,0.101,0.154c0.023,0.063,0.037,0.137,0.037,0.224c0,0.168,-0.045,0.293,-0.138,0.376c-0.092,0.083,-0.2,0.123,-0.327,0.123c-0.131,0,-0.24,-0.04,-0.328,-0.12C1272.9,608.054,1272.85,607.927,1272.85,607.757zM1273.71,613.82l-0.791,0L1272.92,609.047l0.791,0L1273.71,613.82z"/>
   <path fill="#8C8C8C"  d="M1276.66,613.259c0.052,0,0.111,-0.003,0.176,-0.01c0.066,-0.006,0.128,-0.013,0.189,-0.021c0.061,-0.009,0.116,-0.019,0.167,-0.031c0.051,-0.011,0.089,-0.021,0.115,-0.028l0,0.6c-0.037,0.017,-0.085,0.035,-0.144,0.052c-0.059,0.018,-0.122,0.033,-0.191,0.046c-0.068,0.015,-0.142,0.022,-0.217,0.03s-0.148,0.011,-0.221,0.011c-0.18,0,-0.347,-0.021,-0.5,-0.068c-0.153,-0.048,-0.286,-0.126,-0.397,-0.239c-0.111,-0.112,-0.198,-0.267,-0.263,-0.458c-0.063,-0.192,-0.095,-0.437,-0.095,-0.729L1275.28,609.643l-0.674,0L1274.61,609.291l0.673,-0.339l0.339,-0.999l0.456,0l0,1.096l1.199,0l0,0.596l-1.199,0l0,2.769c0,0.281,0.045,0.492,0.137,0.636C1276.3,613.188,1276.45,613.259,1276.66,613.259z"/>
   <path fill="#8C8C8C"  d="M1281.22,613.82l0,-3.073c0,-0.377,-0.076,-0.659,-0.228,-0.848c-0.152,-0.188,-0.391,-0.282,-0.715,-0.282c-0.234,0,-0.433,0.037,-0.592,0.111c-0.158,0.076,-0.286,0.188,-0.384,0.336c-0.097,0.148,-0.166,0.328,-0.208,0.544c-0.042,0.214,-0.063,0.461,-0.063,0.739l0,2.473l-0.791,0L1278.24,607.057l0.791,0l0,2.008l-0.034,0.626l0.044,0c0.072,-0.124,0.158,-0.232,0.258,-0.323s0.209,-0.167,0.328,-0.229c0.118,-0.061,0.245,-0.104,0.378,-0.135c0.133,-0.027,0.27,-0.043,0.408,-0.043c0.531,0,0.93,0.139,1.198,0.416c0.268,0.275,0.401,0.719,0.401,1.326l0,3.117L1281.22,613.82L1281.22,613.82z"/>
  </g>
  <g >
   <path fill="#8C8C8C"  d="M1302.98,613.804l-1.324,0L1301.65,607.45l3.642,0l0,1.104l-2.316,0l0,1.639l2.156,0l0,1.1l-2.156,0L1302.98,613.804L1302.98,613.804z"/>
   <path fill="#8C8C8C"  d="M1309.01,608.854c0.035,0,0.074,0.002,0.116,0.002c0.042,0.002,0.083,0.006,0.12,0.01c0.041,0.005,0.076,0.009,0.11,0.014c0.031,0.004,0.059,0.01,0.075,0.016l0,1.244c-0.022,-0.008,-0.056,-0.012,-0.095,-0.018c-0.04,-0.007,-0.083,-0.012,-0.128,-0.018c-0.045,-0.004,-0.09,-0.006,-0.133,-0.008c-0.044,-0.002,-0.08,-0.002,-0.108,-0.002c-0.171,0,-0.328,0.021,-0.472,0.064c-0.146,0.043,-0.269,0.113,-0.37,0.211s-0.183,0.225,-0.239,0.383c-0.057,0.157,-0.084,0.352,-0.084,0.581l0,2.474l-1.326,0L1306.48,608.945l1.005,0l0.194,0.73l0.066,0c0.068,-0.125,0.145,-0.238,0.226,-0.34c0.081,-0.103,0.172,-0.189,0.272,-0.259c0.1,-0.071,0.212,-0.126,0.338,-0.165C1308.7,608.874,1308.85,608.854,1309.01,608.854z"/>
   <path fill="#8C8C8C"  d="M1310.33,607.689c0,-0.125,0.018,-0.228,0.056,-0.311c0.038,-0.084,0.089,-0.15,0.154,-0.2c0.065,-0.051,0.142,-0.086,0.229,-0.106c0.088,-0.02,0.184,-0.03,0.281,-0.03c0.099,0,0.191,0.01,0.277,0.03c0.088,0.02,0.164,0.055,0.229,0.106c0.066,0.05,0.117,0.116,0.156,0.2c0.04,0.083,0.059,0.186,0.059,0.311c0,0.122,-0.019,0.225,-0.059,0.309c-0.039,0.084,-0.09,0.151,-0.156,0.203c-0.063,0.05,-0.142,0.086,-0.229,0.108c-0.086,0.021,-0.18,0.032,-0.277,0.032c-0.099,0,-0.191,-0.012,-0.281,-0.032c-0.088,-0.021,-0.164,-0.059,-0.229,-0.108c-0.065,-0.051,-0.116,-0.119,-0.154,-0.203C1310.35,607.914,1310.33,607.811,1310.33,607.689zM1311.71,613.804l-1.325,0L1310.39,608.945l1.325,0L1311.71,613.804z"/>
   <path fill="#8C8C8C"  d="M1315.12,612.835c0.13,0,0.254,-0.016,0.371,-0.045c0.117,-0.027,0.235,-0.064,0.357,-0.107l0,0.986c-0.124,0.063,-0.278,0.116,-0.463,0.157c-0.184,0.042,-0.385,0.063,-0.603,0.063c-0.211,0,-0.408,-0.024,-0.59,-0.073c-0.185,-0.05,-0.342,-0.137,-0.476,-0.259c-0.133,-0.123,-0.237,-0.288,-0.313,-0.495c-0.077,-0.208,-0.114,-0.468,-0.114,-0.781L1313.29,609.94l-0.636,0L1312.65,609.379l0.729,-0.443l0.383,-1.024l0.848,0l0,1.034l1.184,0l0,0.995l-1.184,0l0,2.343c0,0.188,0.048,0.327,0.141,0.417C1314.85,612.79,1314.97,612.835,1315.12,612.835z"/>
   <path fill="#8C8C8C"  d="M1319.99,613.804L1316.42,613.804l0,-0.781l1.985,-3.064l-1.853,0L1316.55,608.945l3.355,0l0,0.859l-1.92,2.985l2.004,0L1319.99,613.804L1319.99,613.804z"/>
   <path fill="#8C8C8C"  d="M1320.93,607.689c0,-0.125,0.02,-0.228,0.057,-0.311c0.038,-0.084,0.09,-0.15,0.153,-0.2c0.065,-0.051,0.144,-0.086,0.23,-0.106s0.182,-0.03,0.28,-0.03c0.098,0,0.19,0.01,0.277,0.03c0.088,0.02,0.164,0.055,0.229,0.106c0.064,0.05,0.117,0.116,0.156,0.2c0.038,0.083,0.059,0.186,0.059,0.311c0,0.122,-0.021,0.225,-0.059,0.309c-0.039,0.084,-0.092,0.151,-0.156,0.203c-0.064,0.05,-0.143,0.086,-0.229,0.108c-0.086,0.021,-0.18,0.032,-0.277,0.032c-0.099,0,-0.192,-0.012,-0.28,-0.032c-0.088,-0.021,-0.165,-0.059,-0.23,-0.108c-0.063,-0.051,-0.115,-0.119,-0.153,-0.203C1320.95,607.914,1320.93,607.811,1320.93,607.689zM1322.31,613.804L1320.99,613.804L1320.99,608.945l1.324,0L1322.31,613.804z"/>
   <path fill="#8C8C8C"  d="M1327.96,613.804L1326.64,613.804l0,-2.839c0,-0.351,-0.053,-0.613,-0.158,-0.787c-0.105,-0.176,-0.274,-0.265,-0.508,-0.265c-0.173,0,-0.317,0.035,-0.434,0.104c-0.116,0.07,-0.209,0.173,-0.276,0.31c-0.066,0.136,-0.115,0.304,-0.146,0.504c-0.029,0.2,-0.043,0.429,-0.043,0.687l0,2.286L1323.75,613.804L1323.75,608.945l1.012,0l0.181,0.621l0.073,0c0.069,-0.124,0.153,-0.23,0.253,-0.321c0.102,-0.089,0.21,-0.163,0.328,-0.221s0.245,-0.103,0.378,-0.128c0.136,-0.028,0.271,-0.043,0.409,-0.043c0.237,0,0.454,0.033,0.647,0.104c0.194,0.067,0.36,0.174,0.5,0.318c0.141,0.146,0.247,0.328,0.321,0.555c0.075,0.225,0.113,0.492,0.113,0.807l0,3.168L1327.96,613.804L1327.96,613.804z"/>
   <path fill="#8C8C8C"  d="M1333.39,608.954l0,0.722l-0.708,0.221c0.059,0.1,0.1,0.201,0.122,0.308c0.021,0.106,0.033,0.22,0.033,0.343c0,0.246,-0.039,0.471,-0.116,0.676c-0.078,0.203,-0.193,0.379,-0.349,0.522c-0.152,0.146,-0.346,0.258,-0.578,0.337c-0.23,0.08,-0.5,0.119,-0.808,0.119c-0.067,0,-0.141,-0.003,-0.218,-0.012c-0.078,-0.007,-0.137,-0.015,-0.175,-0.021c-0.057,0.049,-0.104,0.101,-0.137,0.152c-0.033,0.054,-0.049,0.117,-0.049,0.193c0,0.061,0.018,0.108,0.056,0.146s0.087,0.065,0.147,0.087c0.06,0.022,0.133,0.036,0.214,0.044s0.165,0.012,0.251,0.012l0.756,0c0.236,0,0.446,0.025,0.631,0.081c0.186,0.055,0.342,0.135,0.472,0.246c0.129,0.109,0.229,0.249,0.299,0.419c0.069,0.169,0.104,0.372,0.104,0.605c0,0.275,-0.054,0.523,-0.164,0.745c-0.109,0.224,-0.274,0.41,-0.494,0.565c-0.219,0.154,-0.488,0.273,-0.813,0.355c-0.324,0.082,-0.699,0.123,-1.126,0.123c-0.329,0,-0.618,-0.031,-0.864,-0.094c-0.247,-0.063,-0.451,-0.15,-0.617,-0.27c-0.165,-0.116,-0.288,-0.258,-0.371,-0.424c-0.084,-0.164,-0.125,-0.353,-0.125,-0.561c0,-0.177,0.031,-0.33,0.093,-0.46c0.061,-0.131,0.143,-0.243,0.243,-0.336c0.102,-0.093,0.218,-0.168,0.347,-0.227c0.129,-0.058,0.262,-0.103,0.396,-0.134c-0.061,-0.026,-0.12,-0.063,-0.181,-0.109c-0.059,-0.047,-0.113,-0.1,-0.161,-0.159c-0.047,-0.063,-0.086,-0.129,-0.116,-0.203c-0.031,-0.072,-0.047,-0.15,-0.047,-0.23c0,-0.093,0.015,-0.178,0.04,-0.252c0.029,-0.076,0.068,-0.146,0.12,-0.212c0.052,-0.064,0.117,-0.126,0.196,-0.184c0.078,-0.06,0.166,-0.117,0.264,-0.18c-0.254,-0.11,-0.456,-0.287,-0.604,-0.53c-0.15,-0.244,-0.225,-0.529,-0.225,-0.859c0,-0.26,0.04,-0.494,0.121,-0.699c0.081,-0.207,0.2,-0.381,0.356,-0.523c0.155,-0.144,0.35,-0.252,0.582,-0.328c0.231,-0.076,0.499,-0.113,0.801,-0.113c0.057,0,0.122,0.004,0.194,0.012s0.145,0.018,0.216,0.025c0.07,0.01,0.137,0.021,0.196,0.033c0.061,0.01,0.109,0.021,0.146,0.029L1333.39,608.954L1333.39,608.954zM1329.92,614.491c0,0.073,0.017,0.145,0.047,0.211c0.03,0.068,0.08,0.129,0.15,0.182c0.068,0.052,0.16,0.094,0.272,0.124c0.113,0.03,0.252,0.046,0.417,0.046c0.452,0,0.792,-0.063,1.021,-0.191c0.229,-0.127,0.343,-0.298,0.343,-0.514c0,-0.183,-0.07,-0.304,-0.213,-0.364c-0.143,-0.06,-0.361,-0.091,-0.66,-0.091l-0.613,0c-0.077,0,-0.162,0.009,-0.252,0.027c-0.09,0.018,-0.172,0.052,-0.248,0.099c-0.075,0.046,-0.139,0.108,-0.188,0.184S1329.92,614.376,1329.92,614.491zM1330.4,610.536c0,0.263,0.049,0.468,0.147,0.612c0.098,0.146,0.248,0.217,0.447,0.217c0.209,0,0.358,-0.07,0.451,-0.217c0.094,-0.145,0.14,-0.35,0.14,-0.612c0,-0.261,-0.046,-0.468,-0.137,-0.622c-0.092,-0.152,-0.243,-0.229,-0.454,-0.229C1330.59,609.684,1330.4,609.967,1330.4,610.536z"/>
   <path fill="#8C8C8C"  d="M1334.14,613.183c0,-0.136,0.02,-0.251,0.059,-0.346c0.04,-0.095,0.094,-0.172,0.163,-0.229c0.069,-0.058,0.149,-0.101,0.244,-0.126c0.092,-0.026,0.191,-0.039,0.299,-0.039c0.102,0,0.198,0.013,0.289,0.039c0.092,0.025,0.172,0.068,0.242,0.126c0.068,0.057,0.123,0.134,0.163,0.229c0.041,0.095,0.062,0.21,0.062,0.346c0,0.13,-0.021,0.242,-0.062,0.335c-0.04,0.093,-0.095,0.17,-0.163,0.229c-0.07,0.062,-0.15,0.104,-0.242,0.133c-0.091,0.027,-0.188,0.042,-0.289,0.042c-0.106,0,-0.207,-0.015,-0.299,-0.042c-0.095,-0.027,-0.175,-0.071,-0.244,-0.133c-0.069,-0.061,-0.123,-0.138,-0.163,-0.229C1334.16,613.425,1334.14,613.313,1334.14,613.183z"/>
   <path fill="#8C8C8C"  d="M1341.1,611.365c0,0.406,-0.052,0.767,-0.153,1.079c-0.104,0.313,-0.251,0.576,-0.443,0.79c-0.192,0.215,-0.428,0.378,-0.704,0.489c-0.277,0.111,-0.587,0.167,-0.933,0.167c-0.321,0,-0.617,-0.056,-0.886,-0.167c-0.271,-0.112,-0.503,-0.274,-0.698,-0.489c-0.195,-0.214,-0.35,-0.479,-0.458,-0.79c-0.11,-0.313,-0.165,-0.673,-0.165,-1.079c0,-0.402,0.051,-0.76,0.154,-1.072c0.103,-0.314,0.25,-0.576,0.442,-0.789C1337.45,609.29,1337.68,609.129,1337.96,609.02s0.587,-0.164,0.937,-0.164c0.319,0,0.615,0.055,0.886,0.164c0.27,0.111,0.502,0.271,0.695,0.484c0.197,0.213,0.351,0.477,0.459,0.789C1341.05,610.605,1341.1,610.963,1341.1,611.365zM1338.02,611.365c0,0.484,0.068,0.851,0.205,1.093c0.137,0.246,0.357,0.368,0.664,0.368c0.306,0,0.524,-0.123,0.66,-0.37c0.137,-0.245,0.205,-0.608,0.205,-1.091s-0.068,-0.846,-0.205,-1.084c-0.136,-0.238,-0.358,-0.357,-0.668,-0.357c-0.305,0,-0.523,0.119,-0.659,0.357C1338.08,610.52,1338.02,610.883,1338.02,611.365z"/>
   <path fill="#8C8C8C"  d="M1344.82,608.854c0.035,0,0.073,0.002,0.115,0.002c0.042,0.002,0.083,0.006,0.12,0.01c0.04,0.005,0.076,0.009,0.109,0.014c0.033,0.004,0.059,0.01,0.076,0.016l0,1.244c-0.023,-0.008,-0.055,-0.012,-0.095,-0.018c-0.041,-0.007,-0.083,-0.012,-0.13,-0.018c-0.045,-0.004,-0.089,-0.006,-0.132,-0.008c-0.045,-0.002,-0.08,-0.002,-0.108,-0.002c-0.171,0,-0.328,0.021,-0.473,0.064c-0.144,0.043,-0.267,0.113,-0.37,0.211c-0.102,0.098,-0.182,0.225,-0.237,0.383c-0.058,0.157,-0.084,0.352,-0.084,0.581l0,2.474l-1.326,0L1342.29,608.945l1.004,0l0.195,0.73l0.065,0c0.068,-0.125,0.146,-0.238,0.226,-0.34c0.081,-0.103,0.172,-0.189,0.271,-0.259c0.101,-0.071,0.213,-0.126,0.339,-0.165C1344.52,608.874,1344.66,608.854,1344.82,608.854z"/>
   <path fill="#8C8C8C"  d="M1350.13,608.954l0,0.722l-0.708,0.221c0.058,0.1,0.099,0.201,0.121,0.308s0.034,0.22,0.034,0.343c0,0.246,-0.039,0.471,-0.116,0.676c-0.079,0.203,-0.194,0.379,-0.349,0.522c-0.153,0.146,-0.348,0.258,-0.578,0.337c-0.232,0.08,-0.501,0.119,-0.809,0.119c-0.067,0,-0.141,-0.003,-0.219,-0.012c-0.078,-0.007,-0.135,-0.015,-0.173,-0.021c-0.058,0.049,-0.104,0.101,-0.137,0.152c-0.034,0.054,-0.05,0.117,-0.05,0.193c0,0.061,0.019,0.108,0.057,0.146c0.037,0.037,0.086,0.065,0.146,0.087c0.062,0.021,0.133,0.036,0.215,0.044c0.08,0.008,0.164,0.012,0.251,0.012l0.756,0c0.234,0,0.445,0.025,0.63,0.081c0.186,0.055,0.343,0.135,0.472,0.246c0.129,0.109,0.229,0.249,0.298,0.419c0.07,0.169,0.104,0.372,0.104,0.605c0,0.275,-0.054,0.523,-0.165,0.745c-0.109,0.224,-0.275,0.41,-0.493,0.565c-0.219,0.154,-0.489,0.273,-0.815,0.355c-0.323,0.082,-0.698,0.123,-1.125,0.123c-0.329,0,-0.617,-0.031,-0.864,-0.094c-0.246,-0.063,-0.451,-0.15,-0.617,-0.27c-0.164,-0.116,-0.287,-0.258,-0.371,-0.424c-0.083,-0.164,-0.124,-0.353,-0.124,-0.561c0,-0.177,0.03,-0.33,0.091,-0.46c0.063,-0.131,0.144,-0.243,0.244,-0.336c0.103,-0.093,0.217,-0.168,0.346,-0.227c0.129,-0.058,0.263,-0.103,0.398,-0.134c-0.062,-0.026,-0.121,-0.063,-0.182,-0.109c-0.06,-0.047,-0.113,-0.1,-0.16,-0.159c-0.047,-0.063,-0.087,-0.129,-0.117,-0.203c-0.03,-0.073,-0.045,-0.151,-0.045,-0.231c0,-0.093,0.014,-0.178,0.04,-0.252c0.027,-0.076,0.067,-0.146,0.12,-0.212c0.051,-0.064,0.117,-0.126,0.194,-0.184c0.078,-0.06,0.166,-0.117,0.266,-0.18c-0.255,-0.109,-0.456,-0.287,-0.606,-0.529c-0.148,-0.244,-0.223,-0.531,-0.223,-0.861c0,-0.26,0.039,-0.493,0.121,-0.698c0.081,-0.207,0.199,-0.382,0.354,-0.524c0.156,-0.143,0.351,-0.252,0.583,-0.328c0.231,-0.074,0.499,-0.111,0.8,-0.111c0.059,0,0.123,0.003,0.195,0.011s0.146,0.017,0.215,0.026c0.072,0.009,0.138,0.021,0.198,0.031c0.062,0.012,0.108,0.021,0.145,0.03L1350.13,608.953L1350.13,608.954zM1346.65,614.491c0,0.073,0.017,0.145,0.046,0.211c0.031,0.068,0.081,0.129,0.149,0.182c0.07,0.052,0.161,0.094,0.273,0.124c0.114,0.03,0.252,0.046,0.418,0.046c0.451,0,0.792,-0.063,1.021,-0.191c0.229,-0.127,0.343,-0.298,0.343,-0.514c0,-0.183,-0.071,-0.304,-0.214,-0.364s-0.361,-0.091,-0.66,-0.091l-0.612,0c-0.079,0,-0.163,0.009,-0.252,0.027c-0.09,0.019,-0.173,0.052,-0.248,0.099c-0.076,0.046,-0.139,0.108,-0.188,0.184C1346.68,614.278,1346.65,614.376,1346.65,614.491zM1347.13,610.536c0,0.263,0.049,0.468,0.148,0.612c0.099,0.146,0.248,0.217,0.447,0.217c0.209,0,0.358,-0.07,0.451,-0.217c0.094,-0.145,0.141,-0.35,0.141,-0.612c0,-0.261,-0.046,-0.468,-0.138,-0.622c-0.092,-0.152,-0.243,-0.229,-0.454,-0.229C1347.33,609.684,1347.13,609.967,1347.13,610.536z"/>
  </g>
  <g >
   <path fill="#8C8C8C"  d="M1295.72,606.074l-8.146,0c-0.532,0,-0.965,0.432,-0.965,0.964l0,8.146c0,0.531,0.433,0.964,0.965,0.964l5.55,0l3.557,-3.558L1296.69,607.038C1296.69,606.505,1296.26,606.074,1295.72,606.074zM1294.05,609.803l-1.075,0l0,0.401l1.075,0l0,1.601l-2.196,0l0,2.058l-2.572,0l0,-4.67l0.988,-0.99l3.779,0l0,1.603l0.001,0L1294.05,609.803z"/>
  </g>
 </g>
 <g partID="117970">
  <g transform="translate(26.728,277.173)">
   <g transform="matrix(1, 0, 0, 1, 18, 0)">
    <g id="schematic">
     <g transform="matrix(1, 0, 0, 1, -18, 0)">
      <g>
       <rect width="1.894" x="42.633" y="1.237" height="9.783" id="connector1pin"/>
       <g width="0.866" x="43.142" y="0.876" height="0.684" id="connector1terminal"/>
       <rect width="2.023" x="41.968" y="52.568" height="9.781" id="connector2pin"/>
       <g width="0.867" x="43" y="62.131" height="0.686" id="connector2terminal"/>
       <rect width="9.781" x="2.057" y="30.747" height="1.894" id="connector0pin"/>
       <g width="0.686" x="1.591" y="31.268" height="0.867" id="connector0terminal"/>
      </g>
     </g>
     <g transform="matrix(1, 0, 0, 1, -0.464, 0)">
      <g id="g10">
       <path id="path12" d="M24.464,61.909L24.464,44.004c0,-0.615,0.498,-1.111,1.112,-1.111l0,0c0.615,0,1.113,0.496,1.113,1.111l0,0l0,17.905c0,0.614,-0.498,1.112,-1.113,1.112l0,0C24.962,63.021,24.464,62.523,24.464,61.909L24.464,61.909z"/>
      </g>
     </g>
     <g id="g14">
      <path id="path16" d="M24.463,19.799L24.463,1.742c0,-0.616,0.498,-1.114,1.115,-1.114l0,0c0.614,0,1.112,0.498,1.112,1.114l0,0l0,18.057c0,0.615,-0.498,1.113,-1.112,1.113l0,0C24.961,20.912,24.463,20.414,24.463,19.799L24.463,19.799z"/>
     </g>
     <g id="g18">
      <polygon points="11.687,42.379,11.687,21.365,13.915,21.365,13.915,42.379" id="polygon20"/>
     </g>
     <circle fill="none" cx="16.558" cy="31.807" stroke="#000000" id="circle22" r="14.953" stroke-width="1.8499"/>
     <g transform="matrix(1.03724, 0, 0, 1, 0.61803, 0)">
      <g id="g24">
       <path id="path26" d="M-15.345,33c-0.689,0,-1.249,-0.559,-1.249,-1.247l0,0c0,-0.69,0.56,-1.249,1.249,-1.249l0,0l25.678,0c0.689,0,1.249,0.559,1.249,1.249l0,0c0,0.688,-0.56,1.247,-1.249,1.247l0,0L-15.345,33L-15.345,33z"/>
      </g>
     </g>
     <g id="g28">
      <g id="g30">
       <path id="path32" d="M0,0"/>
      </g>
      <g transform="matrix(0.971221, 0, 0, 0.905517, 2.39633, 3.73227)">
       <g id="g34">
        <polygon points="9.529,33.402,10.846,31.897,18.645,38.722,17.328,40.227" id="polygon36"/>
       </g>
      </g>
      <g id="g38">
       <polygon points="20.68,36.1,25.921,44.803,16.598,40.765" id="polygon40"/>
      </g>
     </g>
     <g id="g42">
      <polygon points="12.005,29.762,25.072,19.084,26.181,20.491,13.112,31.168" id="polygon44"/>
     </g>
    </g>
   </g>
  </g>
 </g>
 <g partID="119350">
  <g transform="translate(59.408,190.19)">
   <g  id="schematic">
    <g width="0.208" x="10.632" y="0.525"  height="0.208" id="connector1terminal"/>
    <g width="0.208" x="10.648" y="64.314"  height="0.207" id="connector0terminal"/>
    <rect width="1.375" x="10.028" y="0.421"  height="10.339" id="connector1pin"/>
    <rect width="1.375" x="10.028" y="53"  height="11.767" id="connector0pin"/>
    <line fill="none"  stroke="#000000" stroke-linecap="round" y1="41.171" stroke-width="2.4" x1="10.752" y2="64.123" x2="10.752"/>
    <line fill="none"  stroke="#000000" stroke-linecap="round" y1="41.683" stroke-width="2.4" x1="21.171" y2="41.683" x2="0.333"/>
    <line fill="none"  stroke="#000000" stroke-linecap="round" y1="0.731" stroke-width="2.4" x1="10.752" y2="22.393" x2="10.752"/>
    <polygon fill="none" points="10.752,41.638,5.486,32.515,0.218,23.393,10.752,23.393,21.285,23.393,16.02,32.515"  stroke="#000000" stroke-linejoin="round" stroke-linecap="round" stroke-width="2.4"/>
    <path  d="M27.775,47.148l2.558,-2.037l1.465,-1.169l1.091,-0.871l3.461,9.58L27.775,47.148L27.775,47.148z"/>
    <path  d="M21.226,52.138l2.556,-2.039l1.464,-1.168l1.09,-0.87l3.469,9.581L21.226,52.138L21.226,52.138z"/>
    <line fill="none"  stroke="#000000" stroke-linecap="round" y1="37.577" stroke-width="2.4" x1="24.281" y2="48.061" x2="32.948"/>
    <line fill="none"  stroke="#000000" stroke-linecap="round" y1="45.54" stroke-width="2.4" x1="19.948" y2="52.274" x2="25.515"/>
   </g>
  </g>
 </g>
 <g partID="127810">
  <g transform="translate(1070.01,201.336)">
   <g transform="matrix(2.22045e-16,1,-1,2.22045e-16,0,0)">
    <g  id="schematic">
     <g width="0.208" x="10.632" y="0.525"  height="0.208" id="connector1terminal"/>
     <g width="0.208" x="10.648" y="64.314"  height="0.207" id="connector0terminal"/>
     <rect width="1.375" x="10.028" y="0.421"  height="10.339" id="connector1pin"/>
     <rect width="1.375" x="10.028" y="53"  height="11.767" id="connector0pin"/>
     <line fill="none"  stroke="#000000" stroke-linecap="round" y1="41.171" stroke-width="2.4" x1="10.752" y2="64.123" x2="10.752"/>
     <line fill="none"  stroke="#000000" stroke-linecap="round" y1="41.683" stroke-width="2.4" x1="21.171" y2="41.683" x2="0.333"/>
     <line fill="none"  stroke="#000000" stroke-linecap="round" y1="0.731" stroke-width="2.4" x1="10.752" y2="22.393" x2="10.752"/>
     <polygon fill="none" points="10.752,41.638,5.486,32.515,0.218,23.393,10.752,23.393,21.285,23.393,16.02,32.515"  stroke="#000000" stroke-linejoin="round" stroke-linecap="round" stroke-width="2.4"/>
     <path  d="M27.775,47.148l2.558,-2.037l1.465,-1.169l1.091,-0.871l3.461,9.58L27.775,47.148L27.775,47.148z"/>
     <path  d="M21.226,52.138l2.556,-2.039l1.464,-1.168l1.09,-0.87l3.469,9.581L21.226,52.138L21.226,52.138z"/>
     <line fill="none"  stroke="#000000" stroke-linecap="round" y1="37.577" stroke-width="2.4" x1="24.281" y2="48.061" x2="32.948"/>
     <line fill="none"  stroke="#000000" stroke-linecap="round" y1="45.54" stroke-width="2.4" x1="19.948" y2="52.274" x2="25.515"/>
    </g>
   </g>
  </g>
 </g>
 <g partID="105530">
  <g transform="translate(919.808,218.473)">
   <g transform="matrix(-4.44089e-16,-1,1,-4.44089e-16,0,0)">
    <g  id="schematic">
     <rect width="1.893" x="5.474" y="1.089"  height="9.783" id="connector0pin"/>
     <g width="0.866" x="5.952" y="0.406"  height="0.686" id="connector0terminal"/>
     <rect width="1.894" x="5.477" y="54.369"  height="9.783" id="connector1pin"/>
     <g width="0.866" x="5.956" y="64.082"  height="0.688" id="connector1terminal"/>
     <g >
      <polyline fill="#FFFFFF" points="6.405,1.132,6.405,20.392,9.905,22.255,2.655,26.291,9.905,30.324,2.655,34.359,9.905,38.392,2.655,42.427,6.405,44.599,6.405,63.861"  stroke="#000000" stroke-linecap="round" stroke-width="2.2284"/>
     </g>
    </g>
   </g>
  </g>
 </g>
 <g partID="97220">
  <g transform="translate(467.714,275.118)">
   <g transform="matrix(1,-4.44089e-16,4.44089e-16,1,0,0)">
    <g  id="schematic">
     <rect width="1.893" x="5.474" y="1.089"  height="9.783" id="connector0pin"/>
     <g width="0.866" x="5.952" y="0.406"  height="0.686" id="connector0terminal"/>
     <rect width="1.894" x="5.477" y="54.369"  height="9.783" id="connector1pin"/>
     <g width="0.866" x="5.956" y="64.082"  height="0.688" id="connector1terminal"/>
     <g >
      <polyline fill="#FFFFFF" points="6.405,1.132,6.405,20.392,9.905,22.255,2.655,26.291,9.905,30.324,2.655,34.359,9.905,38.392,2.655,42.427,6.405,44.599,6.405,63.861"  stroke="#000000" stroke-linecap="round" stroke-width="2.2284"/>
     </g>
    </g>
   </g>
  </g>
 </g>
 <g partID="118000">
  <g transform="translate(63.776,105.039)">
   <g  id="schematic">
    <rect width="1.893" x="5.474" y="1.089"  height="9.783" id="connector0pin"/>
    <g width="0.866" x="5.952" y="0.406"  height="0.686" id="connector0terminal"/>
    <rect width="1.894" x="5.477" y="54.369"  height="9.783" id="connector1pin"/>
    <g width="0.866" x="5.956" y="64.082"  height="0.688" id="connector1terminal"/>
    <g >
     <polyline fill="#FFFFFF" points="6.405,1.132,6.405,20.392,9.905,22.255,2.655,26.291,9.905,30.324,2.655,34.359,9.905,38.392,2.655,42.427,6.405,44.599,6.405,63.861"  stroke="#000000" stroke-linecap="round" stroke-width="2.2284"/>
    </g>
   </g>
  </g>
 </g>
 <g partID="97110">
  <g transform="translate(425.194,275.118)">
   <g  id="schematic">
    <rect width="1.893" x="5.474" y="1.089"  height="9.783" id="connector0pin"/>
    <g width="0.866" x="5.952" y="0.406"  height="0.686" id="connector0terminal"/>
    <rect width="1.894" x="5.477" y="54.369"  height="9.783" id="connector1pin"/>
    <g width="0.866" x="5.956" y="64.082"  height="0.688" id="connector1terminal"/>
    <g >
     <polyline fill="#FFFFFF" points="6.405,1.132,6.405,20.392,9.905,22.255,2.655,26.291,9.905,30.324,2.655,34.359,9.905,38.392,2.655,42.427,6.405,44.599,6.405,63.861"  stroke="#000000" stroke-linecap="round" stroke-width="2.2284"/>
    </g>
   </g>
  </g>
 </g>
 <g partID="93260">
  <g transform="translate(1153.92,96.0656)">
   <g  id="schematic">
    <line fill="none"  stroke="#000000" stroke-linejoin="round" id="connector0pin" stroke-linecap="round" y1="9.72299" stroke-width="1.99997" x1="0.997984" y2="9.72299" x2="17.8447"/>
    <g width="0.997984" x="0" y="8.72499"  height="1.997" id="connector0terminal"/>
    <circle fill="none" cx="52.9207"  cy="9.72299" stroke="#000000" r="8.71936" stroke-width="1.99997"/>
    <line fill="none"  stroke="#000000" stroke-linejoin="round" id="line" stroke-linecap="round" y1="9.72299" stroke-width="1.99997" x1="43.2013" y2="9.72299" x2="16.4517"/>
    <line fill="none"  stroke="#000000" stroke-linejoin="round" id="connector1pin" stroke-linecap="round" y1="30.9828" stroke-width="1.99997" x1="0.997984" y2="30.9828" x2="17.8447"/>
    <g width="0.997984" x="0" y="29.9848"  height="1.997" id="connector1terminal"/>
    <circle fill="none" cx="52.9207"  cy="30.9828" stroke="#000000" r="8.71936" stroke-width="1.99997"/>
    <line fill="none"  stroke="#000000" stroke-linejoin="round" id="line" stroke-linecap="round" y1="30.9828" stroke-width="1.99997" x1="43.2013" y2="30.9828" x2="16.4517"/>
    <line fill="none"  stroke="#000000" stroke-linejoin="round" id="connector2pin" stroke-linecap="round" y1="52.2426" stroke-width="1.99997" x1="0.997984" y2="52.2426" x2="17.8447"/>
    <g width="0.997984" x="0" y="51.2446"  height="1.997" id="connector2terminal"/>
    <circle fill="none" cx="52.9207"  cy="52.2426" stroke="#000000" r="8.71936" stroke-width="1.99997"/>
    <line fill="none"  stroke="#000000" stroke-linejoin="round" id="line" stroke-linecap="round" y1="52.2426" stroke-width="1.99997" x1="43.2013" y2="52.2426" x2="16.4517"/>
    <line fill="none"  stroke="#000000" stroke-linejoin="round" id="connector3pin" stroke-linecap="round" y1="73.5024" stroke-width="1.99997" x1="0.997984" y2="73.5024" x2="17.8447"/>
    <g width="0.997984" x="0" y="72.5044"  height="1.997" id="connector3terminal"/>
    <circle fill="none" cx="52.9207"  cy="73.5024" stroke="#000000" r="8.71936" stroke-width="1.99997"/>
    <line fill="none"  stroke="#000000" stroke-linejoin="round" id="line" stroke-linecap="round" y1="73.5024" stroke-width="1.99997" x1="43.2013" y2="73.5024" x2="16.4517"/>
   </g>
  </g>
 </g>
 <g partID="56220">
  <g transform="translate(598.439,100.375)">
   <g id="schematic">
    <rect width="237.599" x="21.6" y="21.6" fill="none" height="453.565" stroke="#000000" stroke-linejoin="round" stroke-linecap="round" stroke-width="2.4"/>
    <g transform="matrix(1, 0, 0, 1, 106.931, 64.9797)">
     <text font-family="'Droid Sans'" id="label" font-size="18">Arduino</text>
    </g>
    <g transform="matrix(1, 0, 0, 1, 122.611, 86.2395)">
     <text font-family="'Droid Sans'" id="label_1_" font-size="18">Uno</text>
    </g>
    <g transform="matrix(1, 0, 0, 1, 114.582, 107.499)">
     <text font-family="'Droid Sans'" id="label_2_" font-size="18">(Rev3)</text>
    </g>
    <line fill="none" stroke="#000000" stroke-linejoin="round" stroke-linecap="round" y1="64.801" stroke-width="2.4" x1="1.2" y2="64.801" x2="21.26"/>
    <rect width="21.6" x="0" y="63.6" fill="none" height="2.4" id="connector43pin"/>
    <g width="2.399" x="0" y="63.6" fill="none" height="2.4" id="connector43terminal"/>
    <g transform="matrix(1, 0, 0, 1, 27.74, 68.2942)">
     <text font-family="'Droid Sans'" id="label43" font-size="9.936">RESET</text>
    </g>
    <line fill="none" stroke="#000000" stroke-linejoin="round" stroke-linecap="round" y1="86.401" stroke-width="2.4" x1="1.2" y2="86.401" x2="21.6"/>
    <rect width="21.601" x="0" y="85.201" fill="none" height="2.398" id="connector49pin"/>
    <g width="2.399" x="0" y="85.201" fill="none" height="2.398" id="connector49terminal"/>
    <g transform="matrix(1, 0, 0, 1, 27.74, 89.8889)">
     <text font-family="'Droid Sans'" id="label49" font-size="9.936">RESET2</text>
    </g>
    <line fill="none" stroke="#000000" stroke-linejoin="round" stroke-linecap="round" y1="108.002" stroke-width="2.4" x1="1.219" y2="108.002" x2="21.599"/>
    <rect width="21.6" x="0" y="106.802" fill="none" height="2.398" id="connector58pin"/>
    <g width="2.399" x="0" y="106.802" fill="none" height="2.398" id="connector58terminal"/>
    <g transform="matrix(1, 0, 0, 1, 27.74, 111.399)">
     <text font-family="'Droid Sans'" id="label58" font-size="9.936">AREF</text>
    </g>
    <line fill="none" stroke="#000000" stroke-linejoin="round" stroke-linecap="round" y1="129.595" stroke-width="2.4" x1="1.2" y2="129.595" x2="21.599"/>
    <rect width="21.6" x="0" y="128.395" fill="none" height="2.399" id="connector91pin"/>
    <g width="2.399" x="0" y="128.395" fill="none" height="2.399" id="connector91terminal"/>
    <g transform="matrix(1, 0, 0, 1, 27.74, 133.033)">
     <text font-family="'Droid Sans'" id="label83" font-size="9.936">N/C</text>
    </g>
    <line fill="none" stroke="#000000" stroke-linejoin="round" stroke-linecap="round" y1="172.802" stroke-width="2.4" x1="1.2" y2="172.802" x2="21.599"/>
    <rect width="21.6" x="0" y="171.601" fill="none" height="2.398" id="connector0pin"/>
    <g width="2.399" x="0" y="171.601" fill="none" height="2.398" id="connector0terminal"/>
    <g transform="matrix(1, 0, 0, 1, 27.74, 176.303)">
     <text font-family="'Droid Sans'" id="label0" font-size="9.936">A0</text>
    </g>
    <line fill="none" stroke="#000000" stroke-linejoin="round" stroke-linecap="round" y1="194.401" stroke-width="2.4" x1="1.2" y2="194.401" x2="21.6"/>
    <rect width="21.601" x="0" y="193.201" fill="none" height="2.398" id="connector1pin"/>
    <g width="2.399" x="0" y="193.201" fill="none" height="2.398" id="connector1terminal"/>
    <g transform="matrix(1, 0, 0, 1, 27.74, 197.855)">
     <text font-family="'Droid Sans'" id="label1" font-size="9.936">A1</text>
    </g>
    <line fill="none" stroke="#000000" stroke-linejoin="round" stroke-linecap="round" y1="216" stroke-width="2.4" x1="1.2" y2="216" x2="21.6"/>
    <rect width="21.601" x="0" y="214.801" fill="none" height="2.399" id="connector2pin"/>
    <g width="2.399" x="0" y="214.801" fill="none" height="2.399" id="connector2terminal"/>
    <g transform="matrix(1, 0, 0, 1, 27.74, 219.532)">
     <text font-family="'Droid Sans'" id="label2" font-size="9.936">A2</text>
    </g>
    <line fill="none" stroke="#000000" stroke-linejoin="round" stroke-linecap="round" y1="237.601" stroke-width="2.4" x1="1.2" y2="237.601" x2="21.6"/>
    <rect width="21.601" x="0" y="236.401" fill="none" height="2.399" id="connector3pin"/>
    <g width="2.399" x="0" y="236.401" fill="none" height="2.399" id="connector3terminal"/>
    <g transform="matrix(1, 0, 0, 1, 27.74, 241.125)">
     <text font-family="'Droid Sans'" id="label3" font-size="9.936">A3</text>
    </g>
    <line fill="none" stroke="#000000" stroke-linejoin="round" stroke-linecap="round" y1="259.2" stroke-width="2.4" x1="1.2" y2="259.2" x2="21.599"/>
    <rect width="21.6" x="0" y="258.001" fill="none" height="2.398" id="connector4pin"/>
    <g width="2.399" x="0" y="258.001" fill="none" height="2.398" id="connector4terminal"/>
    <g transform="matrix(1, 0, 0, 1, 27.74, 262.718)">
     <text font-family="'Droid Sans'" id="label4" font-size="9.936">A4/SDA</text>
    </g>
    <line fill="none" stroke="#000000" stroke-linejoin="round" stroke-linecap="round" y1="280.802" stroke-width="2.4" x1="1.2" y2="280.802" x2="21.599"/>
    <rect width="21.6" x="0" y="279.602" fill="none" height="2.398" id="connector5pin"/>
    <g width="2.399" x="0" y="279.602" fill="none" height="2.398" id="connector5terminal"/>
    <g transform="matrix(1, 0, 0, 1, 27.74, 284.312)">
     <text font-family="'Droid Sans'" id="label5" font-size="9.936">A5/SCL</text>
    </g>
    <line fill="none" stroke="#000000" stroke-linejoin="round" stroke-linecap="round" y1="64.801" stroke-width="2.4" x1="259.199" y2="64.801" x2="279.597"/>
    <rect width="21.599" x="259.2" y="63.6" fill="none" height="2.4" id="connector61pin"/>
    <g width="2.399" x="278.397" y="63.6" fill="none" height="2.4" id="connector61terminal"/>
    <g transform="matrix(1, 0, 0, 1, 226.671, 68.2947)">
     <text font-family="'Droid Sans'" id="label61_1_" font-size="9.936">TX/D0</text>
    </g>
    <line fill="none" stroke="#000000" stroke-linejoin="round" stroke-linecap="round" y1="86.4" stroke-width="2.4" x1="259.199" y2="86.4" x2="279.597"/>
    <rect width="21.601" x="259.199" y="85.2" fill="none" height="2.398" id="connector62pin"/>
    <g width="2.399" x="278.398" y="85.2" fill="none" height="2.398" id="connector62terminal"/>
    <g transform="matrix(1, 0, 0, 1, 225.968, 89.8928)">
     <text font-family="'Droid Sans'" id="label62" font-size="9.936">RX/D1</text>
    </g>
    <line fill="none" stroke="#000000" stroke-linejoin="round" stroke-linecap="round" y1="108" stroke-width="2.4" x1="259.199" y2="108" x2="279.597"/>
    <rect width="21.6" x="259.2" y="106.8" fill="none" height="2.398" id="connector63pin"/>
    <g width="2.399" x="278.398" y="106.8" fill="none" height="2.398" id="connector63terminal"/>
    <g transform="matrix(1, 0, 0, 1, 240.971, 111.492)">
     <text font-family="'Droid Sans'" id="label63" font-size="9.936">D2</text>
    </g>
    <line fill="none" stroke="#000000" stroke-linejoin="round" stroke-linecap="round" y1="129.601" stroke-width="2.4" x1="259.199" y2="129.601" x2="279.597"/>
    <rect width="21.599" x="259.2" y="128.4" fill="none" height="2.399" id="connector64pin"/>
    <g width="2.399" x="278.397" y="128.4" fill="none" height="2.399" id="connector64terminal"/>
    <g transform="matrix(1, 0, 0, 1, 215.238, 133.089)">
     <text font-family="'Droid Sans'" id="label64" font-size="9.936">PWM D3</text>
    </g>
    <line fill="none" stroke="#000000" stroke-linejoin="round" stroke-linecap="round" y1="151.219" stroke-width="2.4" x1="259.199" y2="151.219" x2="279.6"/>
    <rect width="21.601" x="259.199" y="150.019" fill="none" height="2.4" id="connector65pin"/>
    <g width="2.399" x="278.398" y="150.019" fill="none" height="2.4" id="connector65terminal"/>
    <g transform="matrix(1, 0, 0, 1, 240.971, 154.688)">
     <text font-family="'Droid Sans'" id="label65" font-size="9.936">D4</text>
    </g>
    <line fill="none" stroke="#000000" stroke-linejoin="round" stroke-linecap="round" y1="172.802" stroke-width="2.4" x1="259.2" y2="172.802" x2="279.6"/>
    <rect width="21.601" x="259.199" y="171.602" fill="none" height="2.398" id="connector66pin"/>
    <g width="2.399" x="278.398" y="171.602" fill="none" height="2.398" id="connector66terminal"/>
    <g transform="matrix(1, 0, 0, 1, 215.238, 176.285)">
     <text font-family="'Droid Sans'" id="label66" font-size="9.936">PWM D5</text>
    </g>
    <line fill="none" stroke="#000000" stroke-linejoin="round" stroke-linecap="round" y1="194.404" stroke-width="2.4" x1="259.199" y2="194.404" x2="279.6"/>
    <rect width="21.601" x="259.199" y="193.203" fill="none" height="2.398" id="connector67pin"/>
    <g width="2.399" x="278.398" y="193.203" fill="none" height="2.398" id="connector67terminal"/>
    <g transform="matrix(1, 0, 0, 1, 215.238, 197.884)">
     <text font-family="'Droid Sans'" id="label67" font-size="9.936">PWM D6</text>
    </g>
    <line fill="none" stroke="#000000" stroke-linejoin="round" stroke-linecap="round" y1="215.948" stroke-width="2.4" x1="259.2" y2="215.948" x2="279.6"/>
    <rect width="21.601" x="259.199" y="214.749" fill="none" height="2.399" id="connector68pin"/>
    <g width="2.399" x="278.398" y="214.749" fill="none" height="2.399" id="connector68terminal"/>
    <g transform="matrix(1, 0, 0, 1, 240.971, 219.482)">
     <text font-family="'Droid Sans'" id="label68" font-size="9.936">D7</text>
    </g>
    <line fill="none" stroke="#000000" stroke-linejoin="round" stroke-linecap="round" y1="237.55" stroke-width="2.4" x1="259.199" y2="237.55" x2="279.6"/>
    <rect width="21.601" x="259.199" y="236.349" fill="none" height="2.399" id="connector51pin"/>
    <g width="2.399" x="278.398" y="236.349" fill="none" height="2.399" id="connector51terminal"/>
    <g transform="matrix(1, 0, 0, 1, 240.971, 241.08)">
     <text font-family="'Droid Sans'" id="label51" font-size="9.936">D8</text>
    </g>
    <line fill="none" stroke="#000000" stroke-linejoin="round" stroke-linecap="round" y1="259.148" stroke-width="2.4" x1="259.2" y2="259.149" x2="279.6"/>
    <rect width="21.6" x="259.2" y="257.949" fill="none" height="2.398" id="connector52pin"/>
    <g width="2.399" x="278.398" y="257.949" fill="none" height="2.398" id="connector52terminal"/>
    <g transform="matrix(1, 0, 0, 1, 215.238, 262.679)">
     <text font-family="'Droid Sans'" id="label52" font-size="9.936">PWM D9</text>
    </g>
    <line fill="none" stroke="#000000" stroke-linejoin="round" stroke-linecap="round" y1="280.754" stroke-width="2.4" x1="259.2" y2="280.754" x2="279.6"/>
    <rect width="21.6" x="259.2" y="279.554" fill="none" height="2.398" id="connector53pin"/>
    <g width="2.399" x="278.398" y="279.554" fill="none" height="2.398" id="connector53terminal"/>
    <g transform="matrix(1, 0, 0, 1, 195.743, 284.277)">
     <text font-family="'Droid Sans'" id="label53" font-size="9.936">SS/PWM D10</text>
    </g>
    <line fill="none" stroke="#000000" stroke-linejoin="round" stroke-linecap="round" y1="302.359" stroke-width="2.4" x1="259.2" y2="302.359" x2="279.6"/>
    <rect width="21.6" x="259.2" y="301.159" fill="none" height="2.399" id="connector54pin"/>
    <g width="2.399" x="278.398" y="301.159" fill="none" height="2.399" id="connector54terminal"/>
    <g transform="matrix(1, 0, 0, 1, 182.68, 305.875)">
     <text font-family="'Droid Sans'" id="label54" font-size="9.936">MOSI/PWM D11</text>
    </g>
    <line fill="none" stroke="#000000" stroke-linejoin="round" stroke-linecap="round" y1="323.966" stroke-width="2.4" x1="259.2" y2="323.966" x2="279.6"/>
    <rect width="21.6" x="259.2" y="322.765" fill="none" height="2.399" id="connector55pin"/>
    <g width="2.399" x="278.398" y="322.765" fill="none" height="2.399" id="connector55terminal"/>
    <g transform="matrix(1, 0, 0, 1, 207.247, 327.473)">
     <text font-family="'Droid Sans'" id="label55" font-size="9.936">MISO/D12</text>
    </g>
    <line fill="none" stroke="#000000" stroke-linejoin="round" stroke-linecap="round" y1="345.572" stroke-width="2.4" x1="259.2" y2="345.572" x2="279.6"/>
    <rect width="21.6" x="259.2" y="344.372" fill="none" height="2.398" id="connector56pin"/>
    <rect width="21.6" x="259.2" y="301.159" fill="none" height="2.399" id="connector42pin"/>
    <rect width="21.6" x="259.2" y="322.765" fill="none" height="2.399" id="connector39pin"/>
    <rect width="21.601" x="259.199" y="344.372" fill="none" height="2.398" id="connector41pin"/>
    <g width="2.399" x="278.398" y="344.372" fill="none" height="2.398" id="connector56terminal"/>
    <g transform="matrix(1, 0, 0, 1, 214.887, 349.072)">
     <text font-family="'Droid Sans'" id="label56" font-size="9.936">SCK/D13</text>
    </g>
    <line fill="none" stroke="#000000" stroke-linejoin="round" stroke-linecap="round" y1="388.767" stroke-width="2.4" x1="259.2" y2="388.767" x2="279.6"/>
    <rect width="21.6" x="259.2" y="387.567" fill="none" height="2.399" id="connector45pin"/>
    <g width="2.399" x="278.398" y="387.567" fill="none" height="2.399" id="connector45terminal"/>
    <g transform="matrix(1, 0, 0, 1, 200.497, 392.268)">
     <text font-family="'Droid Sans'" id="label45" font-size="9.936">ICSP2 MISO</text>
    </g>
    <line fill="none" stroke="#000000" stroke-linejoin="round" stroke-linecap="round" y1="410.366" stroke-width="2.4" x1="259.2" y2="410.366" x2="279.6"/>
    <rect width="21.6" x="259.2" y="409.166" fill="none" height="2.399" id="connector47pin"/>
    <g width="2.399" x="278.398" y="409.166" fill="none" height="2.399" id="connector47terminal"/>
    <g transform="matrix(1, 0, 0, 1, 208.137, 413.865)">
     <text font-family="'Droid Sans'" id="label47" font-size="9.936">ICSP2 SCK</text>
    </g>
    <line fill="none" stroke="#000000" stroke-linejoin="round" stroke-linecap="round" y1="431.966" stroke-width="2.4" x1="259.2" y2="431.966" x2="279.6"/>
    <rect width="21.617" x="259.182" y="430.766" fill="none" height="2.4" id="connector48pin"/>
    <g width="2.399" x="278.398" y="430.766" fill="none" height="2.4" id="connector48terminal"/>
    <g transform="matrix(1, 0, 0, 1, 205.97, 435.464)">
     <text font-family="'Droid Sans'" id="label48" font-size="9.936">ICSP MOSI</text>
    </g>
    <line fill="none" stroke="#000000" stroke-linejoin="round" stroke-linecap="round" y1="1.2" stroke-width="2.4" x1="86.401" y2="21.26" x2="86.401"/>
    <rect width="2.399" x="85.201" y="0" fill="none" height="21.6" id="connector86pin"/>
    <g fill="none" points="85.201,1.986,87.6,1.986,87.6,0,85.201,0" id="connector86terminal"/>
    <g transform="matrix(1, 0, 0, 1, 77.9456, 33.8596)">
     <text font-family="'Droid Sans'" id="label86" font-size="9.936">3V3</text>
    </g>
    <line fill="none" stroke="#000000" stroke-linejoin="round" stroke-linecap="round" y1="1.2" stroke-width="2.4" x1="129.6" y2="21.26" x2="129.6"/>
    <rect width="2.399" x="128.4" y="0" fill="none" height="21.26" id="connector40pin"/>
    <g fill="none" points="128.4,0,128.4,2.064,130.8,2.064,130.8,0" id="connector40terminal"/>
    <g transform="matrix(1, 0, 0, 1, 123.201, 33.8596)">
     <text font-family="'Droid Sans'" id="label40" font-size="9.936">5V</text>
    </g>
    <line fill="none" stroke="#000000" stroke-linejoin="round" stroke-linecap="round" y1="1.2" stroke-width="2.4" x1="172.802" y2="21.26" x2="172.802"/>
    <rect width="2.398" x="171.6" y="0" fill="none" height="21.26" id="connector90pin"/>
    <g fill="none" points="171.602,0,171.604,0.002,171.602,2.095,173.999,2.095,174.002,0" id="connector90terminal"/>
    <g transform="matrix(1, 0, 0, 1, 163.152, 33.8596)">
     <text font-family="'Droid Sans'" id="label90" font-size="9.936">VIN</text>
    </g>
    <line fill="none" stroke="#000000" stroke-linejoin="round" stroke-linecap="round" y1="475.165" stroke-width="2.4" x1="151.2" y2="495.584" x2="151.199"/>
    <rect width="2.399" x="150" y="475.165" fill="none" height="21.601" id="connector44pin"/>
    <g fill="none" points="150,496.766,152.399,496.766,152.399,494.73,150,494.73" id="connector44terminal"/>
    <g transform="matrix(1, 0, 0, 1, 141.441, 464.357)">
     <text font-family="'Droid Sans'" id="label44" font-size="9.936">GND</text>
    </g>
    <rect width="2.399" x="128.401" y="0" fill="none" height="21.26" id="connector46pin"/>
    <g fill="none" points="128.4,0,128.4,2.064,130.8,2.064,130.8,0" id="connector46terminal"/>
    <rect width="2.399" x="128.4" y="0" fill="none" height="21.26" id="connector84pin"/>
    <g fill="none" points="128.4,0,128.4,2.064,130.8,2.064,130.8,0" id="connector84terminal"/>
    <rect width="2.399" x="128.4" y="0" fill="none" height="21.26" id="connector87pin"/>
    <g fill="none" points="128.4,2.064,130.8,2.064,130.8,0,130.8,0.001,128.4,0" id="connector87terminal"/>
    <rect width="2.399" x="150" y="475.165" fill="none" height="21.601" id="connector88pin"/>
    <g fill="none" points="150,496.766,150,494.73,152.399,494.73,152.399,496.766" id="connector88terminal"/>
    <rect width="2.399" x="150" y="475.165" fill="none" height="21.601" id="connector89pin"/>
    <g fill="none" points="150,494.73,152.399,494.73,152.399,496.766,150,496.766" id="connector89terminal"/>
    <rect width="2.399" x="150" y="475.165" fill="none" height="21.601" id="connector50pin"/>
    <g fill="none" points="150,496.766,150,494.71,152.399,494.73,152.399,496.766" id="connector50terminal"/>
    <rect width="2.399" x="150" y="475.165" fill="none" height="21.601" id="connector57pin"/>
    <g fill="none" points="150,496.766,152.399,496.766,152.399,494.725,150,494.725" id="connector57terminal"/>
    <rect width="21.6" x="0" y="63.6" fill="none" height="2.4" id="connector85pin"/>
    <g width="2.399" x="0" y="63.6" fill="none" height="2.4" id="connector85terminal"/>
    <rect width="21.6" x="0" y="258.001" fill="none" height="2.398" id="connector59pin"/>
    <g width="2.399" x="0" y="258.001" fill="none" height="2.398" id="connector59terminal"/>
    <rect width="21.6" x="0" y="279.602" fill="none" height="2.398" id="connector60pin"/>
    <g width="2.399" x="0" y="279.602" fill="none" height="2.398" id="connector60terminal"/>
   </g>
  </g>
 </g>
 <g partID="91840">
  <g transform="translate(1153.92,202.364)">
   <g  id="schematic">
    <line fill="none"  stroke="#000000" stroke-linejoin="round" id="connector0pin" stroke-linecap="round" y1="9.72301" stroke-width="1.99997" x1="0.997984" y2="9.72301" x2="17.8447"/>
    <g width="0.997984" x="0" y="8.72501"  height="1.997" id="connector0terminal"/>
    <circle fill="none" cx="52.9207"  cy="9.72301" stroke="#000000" r="8.71936" stroke-width="1.99997"/>
    <line fill="none"  stroke="#000000" stroke-linejoin="round" id="line" stroke-linecap="round" y1="9.72301" stroke-width="1.99997" x1="43.2013" y2="9.72301" x2="16.4517"/>
    <line fill="none"  stroke="#000000" stroke-linejoin="round" id="connector1pin" stroke-linecap="round" y1="30.9828" stroke-width="1.99997" x1="0.997984" y2="30.9828" x2="17.8447"/>
    <g width="0.997984" x="0" y="29.9848"  height="1.997" id="connector1terminal"/>
    <circle fill="none" cx="52.9207"  cy="30.9828" stroke="#000000" r="8.71936" stroke-width="1.99997"/>
    <line fill="none"  stroke="#000000" stroke-linejoin="round" id="line" stroke-linecap="round" y1="30.9828" stroke-width="1.99997" x1="43.2013" y2="30.9828" x2="16.4517"/>
    <line fill="none"  stroke="#000000" stroke-linejoin="round" id="connector2pin" stroke-linecap="round" y1="52.2427" stroke-width="1.99997" x1="0.997984" y2="52.2427" x2="17.8447"/>
    <g width="0.997984" x="0" y="51.2447"  height="1.997" id="connector2terminal"/>
    <circle fill="none" cx="52.9207"  cy="52.2427" stroke="#000000" r="8.71936" stroke-width="1.99997"/>
    <line fill="none"  stroke="#000000" stroke-linejoin="round" id="line" stroke-linecap="round" y1="52.2427" stroke-width="1.99997" x1="43.2013" y2="52.2427" x2="16.4517"/>
   </g>
  </g>
 </g>
 <g partID="66820">
  <g transform="translate(1004.85,154.693)">
   <g transform="matrix(-4.44089e-16,-1,1,-4.44089e-16,0,0)">
    <g  id="schematic">
     <rect width="1.893" x="5.474" y="1.089"  height="9.783" id="connector0pin"/>
     <g width="0.866" x="5.952" y="0.406"  height="0.686" id="connector0terminal"/>
     <rect width="1.894" x="5.477" y="54.369"  height="9.783" id="connector1pin"/>
     <g width="0.866" x="5.956" y="64.082"  height="0.688" id="connector1terminal"/>
     <g >
      <polyline fill="#FFFFFF" points="6.405,1.132,6.405,20.392,9.905,22.255,2.655,26.291,9.905,30.324,2.655,34.359,9.905,38.392,2.655,42.427,6.405,44.599,6.405,63.861"  stroke="#000000" stroke-linecap="round" stroke-width="2.2284"/>
     </g>
    </g>
   </g>
  </g>
 </g>
 <g partID="119520">
  <g transform="translate(0,105.039)">
   <g  id="schematic">
    <rect width="1.893" x="5.474" y="1.089"  height="9.783" id="connector0pin"/>
    <g width="0.866" x="5.952" y="0.406"  height="0.686" id="connector0terminal"/>
    <rect width="1.894" x="5.477" y="54.369"  height="9.783" id="connector1pin"/>
    <g width="0.866" x="5.956" y="64.082"  height="0.688" id="connector1terminal"/>
    <g >
     <polyline fill="#FFFFFF" points="6.405,1.132,6.405,20.392,9.905,22.255,2.655,26.291,9.905,30.324,2.655,34.359,9.905,38.392,2.655,42.427,6.405,44.599,6.405,63.861"  stroke="#000000" stroke-linecap="round" stroke-width="2.2284"/>
    </g>
   </g>
  </g>
 </g>
 <g partID="68340">
  <g transform="translate(1126.77,20)">
   <g  id="schematic">
    <rect width="1.893" x="5.474" y="1.089"  height="9.783" id="connector0pin"/>
    <g width="0.866" x="5.952" y="0.406"  height="0.686" id="connector0terminal"/>
    <rect width="1.894" x="5.477" y="54.369"  height="9.783" id="connector1pin"/>
    <g width="0.866" x="5.956" y="64.082"  height="0.688" id="connector1terminal"/>
    <g >
     <polyline fill="#FFFFFF" points="6.405,1.132,6.405,20.392,9.905,22.255,2.655,26.291,9.905,30.324,2.655,34.359,9.905,38.392,2.655,42.427,6.405,44.599,6.405,63.861"  stroke="#000000" stroke-linecap="round" stroke-width="2.2284"/>
    </g>
   </g>
  </g>
 </g>
 <g partID="96430">
  <g transform="translate(142.952,307.758)">
   <g  id="schematic" stroke-width="0">
    <rect width="191.339" x="22.4598" y="22.4598" fill="none"  height="148.819" stroke="#000000" stroke-linejoin="round" stroke-linecap="round" id="rect11555" stroke-width="2.4"/>
    <text x="118.129" y="64.9796" fill="#000000"  stroke="none" style="text-anchor:middle;font-family:Droid Sans" id="label" font-size="0">RTC</text>
    <text x="118.129" y="86.2395" fill="#000000"  stroke="none" style="text-anchor:middle;font-family:Droid Sans" id="text11558" font-size="0">Module</text>
    <text x="118.129" y="107.499" fill="#000000"  stroke="none" style="text-anchor:middle;font-family:Droid Sans" id="text11560" font-size="0">DS3234</text>
    <text x="118.129" y="128.759" font-family="Droid Sans" fill="#000000"  text-anchor="middle" stroke="none" id="text11562" stroke-width="0" font-size="18">Breakout</text>
    <line fill="none"  stroke="#000000" stroke-linejoin="round" stroke-linecap="round" id="line11564" y1="64.9796" stroke-width="2.4" x1="1.2" y2="64.9796" x2="21.2599"/>
    <rect width="21.2599" x="0" y="63.7796" fill="none"  height="2.4" stroke-width="0" connectorName="INT/SQW"/>
    <rect width="2.4" x="0" y="63.7796" fill="none"  height="2.4" stroke-width="0"/>
    <text x="27.7399" y="67.3796" fill="#000000"  stroke="none" style="text-anchor:start;font-family:Droid Sans" id="label9" font-size="0">SQW</text>
    <text x="27.7399" y="88.6393" fill="#000000"  stroke="none" style="text-anchor:start;font-family:Droid Sans" id="label7" font-size="0"/>
    <line fill="none"  stroke="#000000" stroke-linejoin="round" stroke-linecap="round" id="line11574" y1="64.9796" stroke-width="2.4" x1="213.798" y2="64.9796" x2="235.058"/>
    <rect width="21.2599" x="214.998" y="63.7796" fill="none"  connectorname="SS" height="2.4" stroke-width="0"/>
    <rect width="2.4" x="233.858" y="63.7796" fill="none"  height="2.4" stroke-width="0"/>
    <text x="208.518" y="67.3796" fill="#000000"  stroke="none" style="text-anchor:end;font-family:Droid Sans" id="label5" font-size="0">SDA</text>
    <line fill="none"  stroke="#000000" stroke-linejoin="round" stroke-linecap="round" id="line11579" y1="86.2395" stroke-width="2.4" x1="213.798" y2="86.2395" x2="235.058"/>
    <rect width="21.2599" x="214.998" y="85.0393" fill="none"  connectorname="SCLK" height="2.4" stroke-width="0"/>
    <rect width="2.4" x="233.858" y="85.0393" fill="none"  height="2.4" stroke-width="0"/>
    <text x="208.518" y="88.6393" fill="#000000"  stroke="none" style="text-anchor:end;font-family:Droid Sans" id="label8" font-size="0">SCL</text>
    <text x="208.518" y="109.899" fill="#000000"  stroke="none" style="text-anchor:end;font-family:Droid Sans" id="label6" font-size="0"/>
    <line fill="none"  stroke="#000000" stroke-linejoin="round" stroke-linecap="round" id="line11589" y1="1.2" stroke-width="2.4" x1="118.129" y2="21.2599" x2="118.129"/>
    <rect width="2.4" x="116.929" y="0" fill="none"  connectorname="VCC" height="21.2599" stroke-width="0"/>
    <rect width="2.4" x="116.929" y="0" fill="none"  height="0" stroke-width="0"/>
    <text x="118.129" y="33.86" fill="#000000"  stroke="none" style="text-anchor:middle;font-family:Droid Sans" id="label10" font-size="0">5V</text>
    <line fill="none"  stroke="#000000" stroke-linejoin="round" stroke-linecap="round" id="line11594" y1="172.479" stroke-width="2.4" x1="118.129" y2="192.539" x2="118.129"/>
    <rect width="2.4" x="116.929" y="172.479" fill="none"  connectorname="GND" height="21.2599" stroke-width="0"/>
    <rect width="2.4" x="116.929" y="193.738" fill="none"  height="0" stroke-width="0"/>
    <text x="118.129" y="166.719" font-family="Droid Sans" fill="#000000"  text-anchor="middle" stroke="none" id="label11" stroke-width="0" font-size="9.936">GND</text>
    <rect width="2.77843" x="117.159" y="0.538832" fill="none"  height="20.18" id="connector5pin"/>
    <rect width="3.38731" x="116.368" y="173.058" fill="none"  height="20.18" id="connector6"/>
    <rect width="19.3886" x="1.61866" y="63.8486" fill="none"  height="2.37411" id="connector7"/>
    <rect width="22.1584" x="214.498" y="84.4242" fill="none"  height="3.16549" id="connector8pin"/>
    <rect width="18.9929" x="215.685" y="63.4529" fill="none"  height="3.16549" id="connector9pin"/>
    <rect width="0.002" x="233.742" y="64.2212" fill="none"  height="0.002"/>
    <rect width="0.002" x="1.92203" y="65.395" fill="none"  height="0.002"/>
    <rect width="0.002" x="118.372" y="192.834" fill="none"  height="0.002"/>
    <rect width="0.002" x="118.157" y="0.862876" fill="none"  height="0.002"/>
    <rect width="0.002" x="233.742" y="64.2212" fill="none"  height="0.002"/>
    <rect width="0.002" x="1.92203" y="65.395" fill="none"  height="0.002"/>
    <rect width="0.002" x="118.372" y="192.834" fill="none"  height="0.002"/>
    <rect width="0.002" x="118.157" y="0.862876" fill="none"  height="0.002"/>
    <rect width="0.002" x="233.742" y="64.2212" fill="none"  height="0.002"/>
    <rect width="0.002" x="1.92203" y="65.395" fill="none"  height="0.002"/>
    <rect width="0.002" x="118.372" y="192.834" fill="none"  height="0.002"/>
    <rect width="0.002" x="118.157" y="0.862876" fill="none"  height="0.002"/>
    <rect width="0.002" x="233.742" y="64.2212" fill="none"  height="0.002"/>
    <rect width="0.002" x="1.92203" y="65.395" fill="none"  height="0.002"/>
    <rect width="0.002" x="118.372" y="192.834" fill="none"  height="0.002"/>
    <rect width="0.002" x="118.157" y="0.862876" fill="none"  height="0.002"/>
    <rect width="0.002" x="233.742" y="64.2212" fill="none"  height="0.002" id="connector9terminal"/>
    <rect width="0.002" x="1.92203" y="65.395" fill="none"  height="0.002" id="connector7terminal"/>
    <rect width="0.002" x="118.372" y="192.834" fill="none"  height="0.002" id="connector6terminal"/>
    <rect width="0.002" x="118.157" y="0.862876" fill="none"  height="0.002" id="connector5terminal"/>
   </g>
  </g>
 </g>
 <g partID="118260">
  <line stroke="#cc1414" stroke-linecap="round" y1="22.052" x1="70.696" y2="105.788" stroke-width="2.4" x2="70.157"/>
 </g>
 <circle fill="black" cx="70.696" cy="22.052" stroke="none" r="3.6" stroke-width="0"/>
 <g partID="118090">
  <line stroke="#cc1414" stroke-linecap="round" y1="20.8512" x1="262.892" y2="22.0524" stroke-width="2.4" x2="70.7"/>
 </g>
 <g partID="119380">
  <line stroke="#cc1414" stroke-linecap="round" y1="278.391" x1="70.304" y2="254.607" stroke-width="2.4" x2="70.161"/>
 </g>
 <g partID="119450">
  <line stroke="#cc1414" stroke-linecap="round" y1="190.818" x1="70.144" y2="169.465" stroke-width="2.4" x2="70.165"/>
 </g>
 <g partID="119750">
  <line stroke="#cc1414" stroke-linecap="round" y1="20.8504" x1="5.832" y2="105.788" stroke-width="2.4" x2="6.3859"/>
 </g>
 <g partID="119540">
  <line stroke="#cc1414" stroke-linecap="round" y1="22.052" x1="70.696" y2="20.8508" stroke-width="2.4" x2="5.83112"/>
 </g>
 <g partID="120580">
  <line stroke="#ffe24d" stroke-linecap="round" y1="297.127" x1="5.832" y2="169.465" stroke-width="2.4" x2="6.38902"/>
 </g>
 <g partID="119960">
  <line stroke="#ffe24d" stroke-linecap="round" y1="308.874" x1="28.664" y2="297.127" stroke-width="2.4" x2="5.834"/>
 </g>
 <circle fill="black" cx="28.664" cy="308.874" stroke="none" r="3.6" stroke-width="0"/>
 <g partID="120690">
  <line stroke="#ffe24d" stroke-linecap="round" y1="297.127" x1="5.84" y2="361.127" stroke-width="2.4" x2="6.59261"/>
 </g>
 <g partID="120470">
  <line stroke="#ffe24d" stroke-linecap="round" y1="361.127" x1="134.056" y2="372.794" stroke-width="2.4" x2="154.265"/>
 </g>
 <g partID="120140">
  <line stroke="#ffe24d" stroke-linecap="round" y1="361.127" x1="6.592" y2="361.127" stroke-width="2.4" x2="134.058"/>
 </g>
 <g partID="120030">
  <line stroke="#ffe24d" stroke-linecap="round" y1="308.874" x1="28.664" y2="297.127" stroke-width="2.4" x2="5.83872"/>
 </g>
 <circle fill="black" cx="28.664" cy="308.874" stroke="none" r="3.6" stroke-width="0"/>
 <g partID="120360">
  <line stroke="#404040" stroke-linecap="round" y1="595.026" x1="70.696" y2="339.647" stroke-width="2.4" x2="70.1575"/>
 </g>
 <g partID="120250">
  <line stroke="#404040" stroke-linecap="round" y1="593.824" x1="262.892" y2="595.025" stroke-width="2.4" x2="70.7"/>
 </g>
 <g partID="108130">
  <line stroke="#fa50e6" stroke-linecap="round" y1="148.327" x1="942.056" y2="208.374" stroke-width="2.4" x2="878.037"/>
 </g>
 <g partID="107380">
  <line stroke="#fa50e6" stroke-linecap="round" y1="148.309" x1="1005.6" y2="148.328" stroke-width="2.4" x2="942.056"/>
 </g>
 <g partID="102500">
  <line stroke="#cc1414" stroke-linecap="round" y1="211.842" x1="474.303" y2="275.867" stroke-width="2.4" x2="474.099"/>
 </g>
 <circle fill="black" cx="474.099" cy="275.867" stroke="none" r="3.6" stroke-width="0"/>
 <g partID="102370">
  <line stroke="#cc1414" stroke-linecap="round" y1="20.8512" x1="474.303" y2="211.842" stroke-width="2.4" x2="474.303"/>
 </g>
 <g partID="102230">
  <line stroke="#cc1414" stroke-linecap="round" y1="20.8512" x1="728.958" y2="20.8512" stroke-width="2.4" x2="474.304"/>
 </g>
 <g partID="102240">
  <line stroke="#cc1414" stroke-linecap="round" y1="101.407" x1="728.039" y2="20.8512" stroke-width="2.4" x2="728.958"/>
 </g>
 <g partID="102770">
  <line stroke="#cc1414" stroke-linecap="round" y1="20.8512" x1="474.303" y2="275.868" stroke-width="2.4" x2="474.099"/>
 </g>
 <circle fill="black" cx="474.099" cy="275.868" stroke="none" r="3.6" stroke-width="0"/>
 <g partID="102650">
  <line stroke="#cc1414" stroke-linecap="round" y1="20.8512" x1="431.06" y2="20.8512" stroke-width="2.4" x2="474.303"/>
 </g>
 <g partID="102660">
  <line stroke="#cc1414" stroke-linecap="round" y1="275.867" x1="431.579" y2="20.8506" stroke-width="2.4" x2="431.06"/>
 </g>
 <circle fill="black" cx="431.579" cy="275.867" stroke="none" r="3.6" stroke-width="0"/>
 <g partID="102900">
  <line stroke="#cc1414" stroke-linecap="round" y1="20.8512" x1="431.06" y2="275.868" stroke-width="2.4" x2="431.579"/>
 </g>
 <circle fill="black" cx="431.579" cy="275.868" stroke="none" r="3.6" stroke-width="0"/>
 <g partID="103000">
  <line stroke="#cc1414" stroke-linecap="round" y1="20.8512" x1="262.892" y2="20.8515" stroke-width="2.4" x2="431.06"/>
 </g>
 <g partID="102910">
  <line stroke="#cc1414" stroke-linecap="round" y1="318.387" x1="261.5" y2="20.851" stroke-width="2.4" x2="262.892"/>
 </g>
 <circle fill="black" cx="262.892" cy="20.851" stroke="none" r="3.6" stroke-width="0"/>
 <g partID="103620">
  <line stroke="#8c3b00" stroke-linecap="round" y1="360.727" x1="431.656" y2="339.544" stroke-width="2.4" x2="431.583"/>
 </g>
 <circle fill="black" cx="431.583" cy="339.544" stroke="none" r="3.6" stroke-width="0"/>
 <g partID="105330">
  <line stroke="#8c3b00" stroke-linecap="round" y1="372.861" x1="410.322" y2="360.727" stroke-width="2.4" x2="431.656"/>
 </g>
 <g partID="103090">
  <line stroke="#8c3b00" stroke-linecap="round" y1="372.794" x1="368.133" y2="372.861" stroke-width="2.4" x2="410.322"/>
 </g>
 <g partID="103390">
  <line stroke="#ff7033" stroke-linecap="round" y1="382.328" x1="474.056" y2="339.545" stroke-width="2.4" x2="474.103"/>
 </g>
 <circle fill="black" cx="474.103" cy="339.545" stroke="none" r="3.6" stroke-width="0"/>
 <g partID="105400">
  <line stroke="#ff7033" stroke-linecap="round" y1="392.861" x1="455.39" y2="382.328" stroke-width="2.4" x2="474.056"/>
 </g>
 <g partID="103200">
  <line stroke="#ff7033" stroke-linecap="round" y1="393.765" x1="368.529" y2="392.86" stroke-width="2.4" x2="455.39"/>
 </g>
 <g partID="103330">
  <line stroke="#404040" stroke-linecap="round" y1="593.824" x1="262.892" y2="490.906" stroke-width="2.4" x2="261.013"/>
 </g>
 <g partID="103340">
  <line stroke="#404040" stroke-linecap="round" y1="596.114" x1="749.638" y2="593.824" stroke-width="2.4" x2="262.892"/>
 </g>
 <circle fill="black" cx="262.892" cy="593.824" stroke="none" r="3.6" stroke-width="0"/>
 <g partID="103520">
  <line stroke="#ff7033" stroke-linecap="round" y1="382.327" x1="474.056" y2="339.545" stroke-width="2.4" x2="474.103"/>
 </g>
 <circle fill="black" cx="474.103" cy="339.545" stroke="none" r="3.6" stroke-width="0"/>
 <g partID="103530">
  <line stroke="#ff7033" stroke-linecap="round" y1="381.176" x1="599.639" y2="382.327" stroke-width="2.4" x2="474.056"/>
 </g>
 <g partID="103750">
  <line stroke="#8c3b00" stroke-linecap="round" y1="360.727" x1="431.656" y2="339.544" stroke-width="2.4" x2="431.583"/>
 </g>
 <circle fill="black" cx="431.583" cy="339.544" stroke="none" r="3.6" stroke-width="0"/>
 <g partID="103760">
  <line stroke="#8c3b00" stroke-linecap="round" y1="359.575" x1="599.639" y2="360.727" stroke-width="2.4" x2="431.656"/>
 </g>
 <g partID="81850">
  <line stroke="#ffe24d" stroke-linecap="round" y1="84.3272" x1="558.856" y2="84.4258" stroke-width="2.4" x2="1133.16"/>
 </g>
 <circle fill="black" cx="1133.16" cy="84.4258" stroke="none" r="3.6" stroke-width="0"/>
 <g partID="82070">
  <line stroke="#ffe24d" stroke-linecap="round" y1="254.727" x1="558.856" y2="84.3272" stroke-width="2.4" x2="558.856"/>
 </g>
 <g partID="81860">
  <line stroke="#ffe24d" stroke-linecap="round" y1="273.175" x1="599.639" y2="254.727" stroke-width="2.4" x2="558.856"/>
 </g>
 <g partID="82160">
  <line stroke="#cc1414" stroke-linecap="round" y1="20.7272" x1="728.456" y2="20.7489" stroke-width="2.4" x2="1133.16"/>
 </g>
 <circle fill="black" cx="1133.16" cy="20.7489" stroke="none" r="3.6" stroke-width="0"/>
 <g partID="82170">
  <line stroke="#cc1414" stroke-linecap="round" y1="101.407" x1="728.039" y2="20.7272" stroke-width="2.4" x2="728.456"/>
 </g>
 <g partID="82360">
  <line stroke="#cc1414" stroke-linecap="round" y1="21.1272" x1="1090.86" y2="20.749" stroke-width="2.4" x2="1133.16"/>
 </g>
 <circle fill="black" cx="1133.16" cy="20.749" stroke="none" r="3.6" stroke-width="0"/>
 <g partID="82280">
  <line stroke="#cc1414" stroke-linecap="round" y1="211.527" x1="1090.06" y2="21.1272" stroke-width="2.4" x2="1090.86"/>
 </g>
 <g partID="82290">
  <line stroke="#cc1414" stroke-linecap="round" y1="212.088" x1="1154.41" y2="211.527" stroke-width="2.4" x2="1090.06"/>
 </g>
 <circle fill="black" cx="1090.06" cy="211.527" stroke="none" r="3.6" stroke-width="0"/>
 <g partID="82660">
  <line stroke="#999999" stroke-linecap="round" y1="254.727" x1="1090.86" y2="251.594" stroke-width="2.4" x2="878.037"/>
 </g>
 <g partID="107520">
  <line stroke="#999999" stroke-linecap="round" y1="233.127" x1="1090.86" y2="254.727" stroke-width="2.4" x2="1090.86"/>
 </g>
 <g partID="82670">
  <line stroke="#999999" stroke-linecap="round" y1="233.348" x1="1154.42" y2="233.127" stroke-width="2.4" x2="1090.86"/>
 </g>
 <g partID="93150">
  <line stroke="#404040" stroke-linecap="round" y1="254.727" x1="1133.26" y2="254.607" stroke-width="2.4" x2="1154.42"/>
 </g>
 <circle fill="black" cx="1154.42" cy="254.607" stroke="none" r="3.6" stroke-width="0"/>
 <g partID="93210">
  <line stroke="#404040" stroke-linecap="round" y1="594.727" x1="1133.26" y2="254.727" stroke-width="2.4" x2="1133.26"/>
 </g>
 <g partID="93160">
  <line stroke="#404040" stroke-linecap="round" y1="596.123" x1="749.639" y2="594.727" stroke-width="2.4" x2="1133.26"/>
 </g>
 <g partID="94260">
  <line stroke="#ffe24d" stroke-linecap="round" y1="84.3272" x1="1132.99" y2="84.4258" stroke-width="2.4" x2="1133.16"/>
 </g>
 <circle fill="black" cx="1133.16" cy="84.4258" stroke="none" r="3.6" stroke-width="0"/>
 <g partID="94270">
  <line stroke="#ffe24d" stroke-linecap="round" y1="105.789" x1="1154.42" y2="84.327" stroke-width="2.4" x2="1132.99"/>
 </g>
 <g partID="95010">
  <line stroke="#404040" stroke-linecap="round" y1="169.66" x1="1132.99" y2="169.568" stroke-width="2.4" x2="1154.41"/>
 </g>
 <circle fill="black" cx="1154.41" cy="169.568" stroke="none" r="3.6" stroke-width="0"/>
 <g partID="94890">
  <line stroke="#404040" stroke-linecap="round" y1="126.994" x1="1132.99" y2="169.66" stroke-width="2.4" x2="1132.99"/>
 </g>
 <g partID="94900">
  <line stroke="#404040" stroke-linecap="round" y1="127.049" x1="1154.42" y2="126.994" stroke-width="2.4" x2="1132.99"/>
 </g>
 <g partID="95140">
  <line stroke="#404040" stroke-linecap="round" y1="169.661" x1="1132.99" y2="169.569" stroke-width="2.4" x2="1154.41"/>
 </g>
 <circle fill="black" cx="1154.41" cy="169.569" stroke="none" r="3.6" stroke-width="0"/>
 <g partID="95240">
  <line stroke="#404040" stroke-linecap="round" y1="254.727" x1="1133.26" y2="169.661" stroke-width="2.4" x2="1132.99"/>
 </g>
 <g partID="95150">
  <line stroke="#404040" stroke-linecap="round" y1="254.607" x1="1154.42" y2="254.727" stroke-width="2.4" x2="1133.26"/>
 </g>
 <circle fill="black" cx="1154.42" cy="254.607" stroke="none" r="3.6" stroke-width="0"/>
 <g partID="95350">
  <line stroke="#fa50e6" stroke-linecap="round" y1="148.327" x1="1154.32" y2="148.305" stroke-width="2.4" x2="1069.27"/>
 </g>
 <g partID="95360">
  <line stroke="#fa50e6" stroke-linecap="round" y1="148.309" x1="1154.42" y2="148.327" stroke-width="2.4" x2="1154.32"/>
 </g>
 <g partID="128910">
  <line stroke="#cc1414" stroke-linecap="round" y1="211.527" x1="1090.06" y2="212.072" stroke-width="2.4" x2="1069.38"/>
 </g>
 <g partID="129180">
  <line stroke="#cc1414" stroke-linecap="round" y1="212.084" x1="984.234" y2="212.088" stroke-width="2.4" x2="1005.6"/>
 </g>
 <g partID="129250">
  <line stroke="#cc1414" stroke-linecap="round" y1="212.327" x1="899.656" y2="212.088" stroke-width="2.4" x2="920.557"/>
 </g>
 <g partID="129260">
  <line stroke="#cc1414" stroke-linecap="round" y1="229.975" x1="878.036" y2="212.327" stroke-width="2.4" x2="899.656"/>
 </g>
 <g id="partLabel" partID="56220">
  <g transform="translate(879.237,89.1752)">
   <g fill="#000000" font-family="'DroidSans'" stroke="none" font-style="normal" fill-opacity="1" font-weight="normal" id="schematicLabel" font-size="9">
    <text x="0" y="6.75">Part1</text>
   </g>
  </g>
 </g>
 <g id="partLabel" partID="66820">
  <g transform="translate(1043.71,95.8264)">
   <g fill="#000000" font-family="'DroidSans'" stroke="none" font-style="normal" fill-opacity="1" font-weight="normal" id="schematicLabel" font-size="9">
    <text x="0" y="6.75">R1</text>
    <text x="0" y="15.75">220&#x3a9;</text>
   </g>
  </g>
 </g>
 <g id="partLabel" partID="119520">
  <g transform="translate(12.56,85.0392)">
   <g fill="#000000" font-family="'DroidSans'" stroke="none" font-style="normal" fill-opacity="1" font-weight="normal" id="schematicLabel" font-size="9">
    <text x="0" y="6.75">R9</text>
    <text x="0" y="15.75">2.2k&#x3a9;</text>
   </g>
  </g>
 </g>
 <g id="partLabel" partID="68340">
  <g transform="translate(1139.33,0)">
   <g fill="#000000" font-family="'DroidSans'" stroke="none" font-style="normal" fill-opacity="1" font-weight="normal" id="schematicLabel" font-size="9">
    <text x="0" y="6.75">R2</text>
    <text x="0" y="15.75">2.2k&#x3a9;</text>
   </g>
  </g>
 </g>
 <g id="partLabel" partID="91840">
  <g transform="translate(1216.56,191.164)">
   <g fill="#000000" font-family="'DroidSans'" stroke="none" font-style="normal" fill-opacity="1" font-weight="normal" id="schematicLabel" font-size="9">
    <text x="0" y="6.75">J2</text>
   </g>
  </g>
 </g>
 <g id="partLabel" partID="93260">
  <g transform="translate(1216.56,84.8656)">
   <g fill="#000000" font-family="'DroidSans'" stroke="none" font-style="normal" fill-opacity="1" font-weight="normal" id="schematicLabel" font-size="9">
    <text x="0" y="6.75">J1</text>
   </g>
  </g>
 </g>
 <g id="partLabel" partID="96430">
  <g transform="translate(379.21,296.558)">
   <g fill="#000000" font-family="'DroidSans'" stroke="none" font-style="normal" fill-opacity="1" font-weight="normal" id="schematicLabel" font-size="9">
    <text x="0" y="6.75">Part2</text>
   </g>
  </g>
 </g>
 <g id="partLabel" partID="118000">
  <g transform="translate(76.336,85.0392)">
   <g fill="#000000" font-family="'DroidSans'" stroke="none" font-style="normal" fill-opacity="1" font-weight="normal" id="schematicLabel" font-size="9">
    <text x="0" y="6.75">R8</text>
    <text x="0" y="15.75">680&#x3a9;</text>
   </g>
  </g>
 </g>
 <g id="partLabel" partID="97110">
  <g transform="translate(437.754,255.118)">
   <g fill="#000000" font-family="'DroidSans'" stroke="none" font-style="normal" fill-opacity="1" font-weight="normal" id="schematicLabel" font-size="9">
    <text x="0" y="6.75">R3</text>
    <text x="0" y="15.75">2.2k&#x3a9;</text>
   </g>
  </g>
 </g>
 <g id="partLabel" partID="97220">
  <g transform="translate(480.274,255.118)">
   <g fill="#000000" font-family="'DroidSans'" stroke="none" font-style="normal" fill-opacity="1" font-weight="normal" id="schematicLabel" font-size="9">
    <text x="0" y="6.75">R4</text>
    <text x="0" y="15.75">2.2k&#x3a9;</text>
   </g>
  </g>
 </g>
 <g id="partLabel" partID="105530">
  <g transform="translate(958.675,159.606)">
   <g fill="#000000" font-family="'DroidSans'" stroke="none" font-style="normal" fill-opacity="1" font-weight="normal" id="schematicLabel" font-size="9">
    <text x="0" y="6.75">R5</text>
    <text x="0" y="15.75">330&#x3a9;</text>
   </g>
  </g>
 </g>
 <g id="partLabel" partID="117970">
  <g transform="translate(77.36,265.973)">
   <g fill="#000000" font-family="'DroidSans'" stroke="none" font-style="normal" fill-opacity="1" font-weight="normal" id="schematicLabel" font-size="9">
    <text x="0" y="6.75">Q1</text>
   </g>
  </g>
 </g>
 <g id="partLabel" partID="127810">
  <g transform="translate(1055.7,167.025)">
   <g fill="#000000" font-family="'DroidSans'" stroke="none" font-style="normal" fill-opacity="1" font-weight="normal" id="schematicLabel" font-size="9">
    <text x="0" y="6.75">LED2</text>
    <text x="0" y="15.75">Green (565nm)</text>
   </g>
  </g>
 </g>
 <g id="partLabel" partID="119350">
  <g transform="translate(95.976,170.19)">
   <g fill="#000000" font-family="'DroidSans'" stroke="none" font-style="normal" fill-opacity="1" font-weight="normal" id="schematicLabel" font-size="9">
    <text x="0" y="6.75">LED1</text>
    <text x="0" y="15.75">Yellow (585nm)</text>
   </g>
  </g>
 </g>
 <g partID="82880">
  <g transform="translate(1240.47,94.3288)">
   <g>
    <rect width="107.198" x="1.2" y="1.2" fill="#fbf7ab" height="78.4" stroke="#ffd50e" stroke-width="2.4"/>
    <g font-family="Droid Sans" fill="#000000" text-anchor="left" stroke="none" font-size="9.6">
     <text x="10.4" y="20" fill="#000000">1w Reader:</text>
    </g>
    <g font-family="Droid Sans" fill="#000000" text-anchor="left" stroke="none" font-size="9.6">
     <text x="10.4" y="32" fill="#000000">1. 1w+ / Green</text>
    </g>
    <g font-family="Droid Sans" fill="#000000" text-anchor="left" stroke="none" font-size="9.6">
     <text x="10.4" y="44" fill="#000000">2. 1w- / Blue</text>
    </g>
    <g font-family="Droid Sans" fill="#000000" text-anchor="left" stroke="none" font-size="9.6">
     <text x="10.4" y="56" fill="#000000">3. LED+ / Orange</text>
    </g>
    <g font-family="Droid Sans" fill="#000000" text-anchor="left" stroke="none" font-size="9.6">
     <text x="10.4" y="68" fill="#000000">4. LED- / Yellow</text>
    </g>
   </g>
  </g>
 </g>
 <g partID="82920">
  <g transform="translate(1240.07,199.718)">
   <g>
    <rect width="109.6" x="1.2" y="1.2" fill="#fbf7ab" height="68.4348" stroke="#ffd50e" stroke-width="2.4"/>
    <g font-family="Droid Sans" fill="#000000" text-anchor="left" stroke="none" font-size="9.6">
     <text x="10.4" y="20" fill="#000000">Relay board:</text>
    </g>
    <g font-family="Droid Sans" fill="#000000" text-anchor="left" stroke="none" font-size="9.6">
     <text x="10.4" y="32" fill="#000000">1. Vcc</text>
    </g>
    <g font-family="Droid Sans" fill="#000000" text-anchor="left" stroke="none" font-size="9.6">
     <text x="10.4" y="44" fill="#000000">2. CH1</text>
    </g>
    <g font-family="Droid Sans" fill="#000000" text-anchor="left" stroke="none" font-size="9.6">
     <text x="10.4" y="56" fill="#000000">3. GND</text>
    </g>
   </g>
  </g>
 </g>
</svg>
